<svg version="1.1" xmlns="http://www.w3.org/2000/svg" viewBox="-11.000001 -18.98889326462935 22.000002 39.43455412929907" fill="none" stroke="black" stroke-width="0.6%" vector-effect="non-scaling-stroke">
    <path d="M -7.07107 -15.5993 A 10 8.15856 360 0 1 10 -9.83033 A 10 8.15856 360 0 1 -10 -9.83033 A 10 8.15856 360 0 1 -7.07107 -15.5993 Z" />
    <path d="M 9.65926 -3.67095 A 10 8.15856 180 0 0 10 -5.78255" />
    <path d="M 2.58819 2.09802 A 10 8.15856 180 0 0 9.65926 -3.67095" />
    <path d="M -7.07107 -0.01357 A 10 8.15856 180 0 0 2.58819 2.09802" />
    <path d="M -10 -5.78255 A 10 8.15856 180 0 0 -7.07107 -0.01357" />
    <path d="M -5.3033 -14.15706 A 7.5 6.11892 360 0 1 7.5 -9.83033 A 7.5 6.11892 360 0 1 -7.5 -9.83033 A 7.5 6.11892 360 0 1 -5.3033 -14.15706 Z" />
    <path d="M -5.3033 -10.10928 A 7.5 6.11892 180 0 0 -7.07786 -7.80644" />
    <path d="M 7.07786 -7.80644 A 7.5 6.11892 180 0 0 4 -10.95857" />
    <path d="M -4 -10.95857 A 7.5 6.11892 180 0 0 -5.3033 -10.10928" />
    <path d="M -9.65926 9.4535 L -9.65926 -3.67095" />
    <path d="M 9.65926 13.67668 L 9.65926 -3.67095" />
    <path d="M 2.58819 19.44566 L 2.58819 2.09802" />
    <path d="M 2.58819 19.44566 L 9.65926 13.67668" />
    <path d="M -7.07107 17.33407 L -7.07107 -0.01357" />
    <path d="M -7.07107 17.33407 L 2.58819 19.44566" />
    <path d="M -9.65926 9.4535 L -7.07107 17.33407" />
    <path d="M -4 -5.78255 A 4 3.26343 180 0 0 -3.6766 -4.49706" />
    <path d="M 3.6766 -4.49706 A 4 3.26343 180 0 0 4 -5.78255" />
    <path d="M -2.82843 -13.87268 A 4 3.26343 360 0 1 4 -11.56509 L 4 -5.78255" />
    <path d="M 4 -11.56509 A 4 3.26343 360 0 1 -4 -11.56509 L -4 -5.78255" />
    <path d="M -4 -11.56509 A 4 3.26343 360 0 1 -2.82843 -13.87268" />
    <path d="M -1.23744 -12.57466 A 1.75 1.42775 360 0 1 1.75 -11.56509 A 1.75 1.42775 360 0 1 -1.75 -11.56509 A 1.75 1.42775 360 0 1 -1.23744 -12.57466 Z" />
    <path d="M -10 -9.83033 L -10 -5.78255" />
    <path d="M 10 -9.83033 L 10 -5.78255" />
</svg>